<?xml version="1.0" encoding="UTF-8" standalone="no"?>
<svg
   width="31.57353mm"
   height="23.67956mm"
   viewBox="0 0 31.573528 23.679559"
   version="1.1"
   id="svg8"
   inkscape:version="1.1.1 (1:1.1+202109281949+c3084ef5ed)"
   sodipodi:docname="HMISCPASopladorFail.svg"
   inkscape:export-filename="/home/gabi/Documentos/gabi-not/Documentos/Repositorios/UNER_Tesis/Diagramas de flujo/Planta de tratamiento biologico/Proceso.png"
   inkscape:export-xdpi="513.13135"
   inkscape:export-ydpi="513.13135"
   xmlns:inkscape="http://www.inkscape.org/namespaces/inkscape"
   xmlns:sodipodi="http://sodipodi.sourceforge.net/DTD/sodipodi-0.dtd"
   xmlns="http://www.w3.org/2000/svg"
   xmlns:svg="http://www.w3.org/2000/svg"
   xmlns:rdf="http://www.w3.org/1999/02/22-rdf-syntax-ns#"
   xmlns:cc="http://creativecommons.org/ns#"
   xmlns:dc="http://purl.org/dc/elements/1.1/">
  <defs
     id="defs2" />
  <sodipodi:namedview
     id="base"
     pagecolor="#8f908d"
     bordercolor="#666666"
     borderopacity="1.0"
     inkscape:pageopacity="1"
     inkscape:pageshadow="2"
     inkscape:zoom="1.4142137"
     inkscape:cx="-128.33987"
     inkscape:cy="52.67945"
     inkscape:document-units="mm"
     inkscape:current-layer="layer3"
     inkscape:document-rotation="0"
     showgrid="true"
     inkscape:window-width="1920"
     inkscape:window-height="1001"
     inkscape:window-x="0"
     inkscape:window-y="0"
     inkscape:window-maximized="1"
     inkscape:pagecheckerboard="true"
     inkscape:snap-grids="true"
     inkscape:snap-page="false"
     fit-margin-top="0"
     fit-margin-left="0"
     fit-margin-right="0"
     fit-margin-bottom="0"
     lock-margins="true">
    <inkscape:grid
       type="xygrid"
       id="grid869"
       dotted="false"
       originx="-210.45434"
       originy="-107.23702" />
  </sodipodi:namedview>
  <metadata
     id="metadata5">
    <rdf:RDF>
      <cc:Work
         rdf:about="">
        <dc:format>image/svg+xml</dc:format>
        <dc:type
           rdf:resource="http://purl.org/dc/dcmitype/StillImage" />
      </cc:Work>
    </rdf:RDF>
  </metadata>
  <g
     inkscape:groupmode="layer"
     id="layer3"
     inkscape:label="Icono"
     style="display:inline;opacity:1"
     transform="translate(-210.45439,-107.23711)">
    <g
       id="g1201"
       transform="matrix(0.03857655,0,0,0.03857655,223.70415,46.255841)" />
    <g
       id="g1203"
       transform="matrix(0.03857655,0,0,0.03857655,223.70415,46.255841)" />
    <g
       id="g1205"
       transform="matrix(0.03857655,0,0,0.03857655,223.70415,46.255841)" />
    <g
       id="g1207"
       transform="matrix(0.03857655,0,0,0.03857655,223.70415,46.255841)" />
    <g
       id="g1209"
       transform="matrix(0.03857655,0,0,0.03857655,223.70415,46.255841)" />
    <g
       id="g1211"
       transform="matrix(0.03857655,0,0,0.03857655,223.70415,46.255841)" />
    <g
       id="g1213"
       transform="matrix(0.03857655,0,0,0.03857655,223.70415,46.255841)" />
    <g
       id="g1215"
       transform="matrix(0.03857655,0,0,0.03857655,223.70415,46.255841)" />
    <g
       id="g1217"
       transform="matrix(0.03857655,0,0,0.03857655,223.70415,46.255841)" />
    <g
       id="g1219"
       transform="matrix(0.03857655,0,0,0.03857655,223.70415,46.255841)" />
    <g
       id="g1221"
       transform="matrix(0.03857655,0,0,0.03857655,223.70415,46.255841)" />
    <g
       id="g1223"
       transform="matrix(0.03857655,0,0,0.03857655,223.70415,46.255841)" />
    <g
       id="g1225"
       transform="matrix(0.03857655,0,0,0.03857655,223.70415,46.255841)" />
    <g
       id="g1227"
       transform="matrix(0.03857655,0,0,0.03857655,223.70415,46.255841)" />
    <g
       id="g1229"
       transform="matrix(0.03857655,0,0,0.03857655,223.70415,46.255841)" />
    <g
       id="g2024"
       transform="matrix(0.30726645,0,0,0.30726645,136.60543,76.07402)"
       style="fill:#ffffff;fill-opacity:1" />
    <path
       d="m 223.61019,107.23711 v 2.63093 h 3.94642 v 2.63093 h 2.63091 v -2.63093 h 3.94642 v -2.63093 h -10.52491 z m 0,7.89279 c -0.35532,0 -0.68554,0.14329 -0.93538,0.38007 l -2.23544,2.25085 h -3.40765 c -0.72344,0 -1.31545,0.59202 -1.31545,1.31547 v 7.89397 c 0,0.72345 0.59201,1.31547 1.31545,1.31547 h 2.23545 l 3.61843,2.40714 c 0.21077,0.14446 0.46178,0.2238 0.7246,0.2238 h 6.57853 c 0.2891,0 0.56476,-0.0912 0.78856,-0.26166 l 5.26187,-3.94639 c 0.32936,-0.24984 0.52689,-0.6453 0.52689,-1.05379 v -9.20944 c 0,-0.72345 -0.59202,-1.31546 -1.31545,-1.31546 z m 15.78676,1.31546 v 7.89398 h 2.63097 v -7.89398 z m -11.84034,1.31665 v 3.9464 h 2.63091 l -3.94637,6.57851 v -3.9464 h -2.63096 z m -17.10222,1.31546 v 6.57851 h 2.63091 v -6.57851 z"
       id="path960-3"
       style="display:inline;fill:#d4082c;fill-opacity:1;stroke-width:1.18403" />
  </g>
  <style
     type="text/css"
     id="style1130">
	.st0{fill:#16ADE1;}
	.st1{fill:#1B3954;}
</style>
</svg>
