<?xml version="1.0" encoding="UTF-8" standalone="no"?>
<svg
   width="2.3640776mm"
   height="7.0935063mm"
   viewBox="0 0 2.3640774 7.093506"
   version="1.1"
   id="svg8"
   inkscape:version="1.1.1 (1:1.1+202109281949+c3084ef5ed)"
   sodipodi:docname="HMISCPATemp.svg"
   inkscape:export-filename="/home/gabi/Documentos/gabi-not/Documentos/Repositorios/UNER_Tesis/Diagramas de flujo/Planta de tratamiento biologico/Proceso.png"
   inkscape:export-xdpi="513.13135"
   inkscape:export-ydpi="513.13135"
   xmlns:inkscape="http://www.inkscape.org/namespaces/inkscape"
   xmlns:sodipodi="http://sodipodi.sourceforge.net/DTD/sodipodi-0.dtd"
   xmlns="http://www.w3.org/2000/svg"
   xmlns:svg="http://www.w3.org/2000/svg"
   xmlns:rdf="http://www.w3.org/1999/02/22-rdf-syntax-ns#"
   xmlns:cc="http://creativecommons.org/ns#"
   xmlns:dc="http://purl.org/dc/elements/1.1/">
  <defs
     id="defs2" />
  <sodipodi:namedview
     id="base"
     pagecolor="#8f908d"
     bordercolor="#666666"
     borderopacity="1.0"
     inkscape:pageopacity="1"
     inkscape:pageshadow="2"
     inkscape:zoom="22.627418"
     inkscape:cx="5.5905627"
     inkscape:cy="16.727494"
     inkscape:document-units="mm"
     inkscape:current-layer="layer3"
     inkscape:document-rotation="0"
     showgrid="true"
     inkscape:window-width="1920"
     inkscape:window-height="1001"
     inkscape:window-x="0"
     inkscape:window-y="0"
     inkscape:window-maximized="1"
     inkscape:pagecheckerboard="true"
     inkscape:snap-grids="true"
     inkscape:snap-page="false"
     fit-margin-top="0"
     fit-margin-left="0"
     fit-margin-right="0"
     fit-margin-bottom="0"
     lock-margins="true">
    <inkscape:grid
       type="xygrid"
       id="grid869"
       dotted="false"
       originx="-163.56932"
       originy="-112.774" />
  </sodipodi:namedview>
  <metadata
     id="metadata5">
    <rdf:RDF>
      <cc:Work
         rdf:about="">
        <dc:format>image/svg+xml</dc:format>
        <dc:type
           rdf:resource="http://purl.org/dc/dcmitype/StillImage" />
      </cc:Work>
    </rdf:RDF>
  </metadata>
  <g
     inkscape:groupmode="layer"
     id="layer4"
     inkscape:label="Fondo"
     transform="translate(-163.56935,-112.77408)" />
  <g
     inkscape:label="Logo de EGGER"
     inkscape:groupmode="layer"
     id="layer1"
     style="display:inline"
     transform="translate(-163.56935,-112.77408)" />
  <g
     inkscape:groupmode="layer"
     id="layer2"
     inkscape:label="Titulo"
     style="display:inline"
     transform="translate(-163.56935,-112.77408)" />
  <g
     inkscape:groupmode="layer"
     id="layer3"
     inkscape:label="Proceso"
     style="display:inline;opacity:1"
     transform="translate(-163.56935,-112.77408)">
    <g
       id="g1201"
       transform="matrix(0.03857655,0,0,0.03857655,223.70415,46.255841)" />
    <g
       id="g1203"
       transform="matrix(0.03857655,0,0,0.03857655,223.70415,46.255841)" />
    <g
       id="g1205"
       transform="matrix(0.03857655,0,0,0.03857655,223.70415,46.255841)" />
    <g
       id="g1207"
       transform="matrix(0.03857655,0,0,0.03857655,223.70415,46.255841)" />
    <g
       id="g1209"
       transform="matrix(0.03857655,0,0,0.03857655,223.70415,46.255841)" />
    <g
       id="g1211"
       transform="matrix(0.03857655,0,0,0.03857655,223.70415,46.255841)" />
    <g
       id="g1213"
       transform="matrix(0.03857655,0,0,0.03857655,223.70415,46.255841)" />
    <g
       id="g1215"
       transform="matrix(0.03857655,0,0,0.03857655,223.70415,46.255841)" />
    <g
       id="g1217"
       transform="matrix(0.03857655,0,0,0.03857655,223.70415,46.255841)" />
    <g
       id="g1219"
       transform="matrix(0.03857655,0,0,0.03857655,223.70415,46.255841)" />
    <g
       id="g1221"
       transform="matrix(0.03857655,0,0,0.03857655,223.70415,46.255841)" />
    <g
       id="g1223"
       transform="matrix(0.03857655,0,0,0.03857655,223.70415,46.255841)" />
    <g
       id="g1225"
       transform="matrix(0.03857655,0,0,0.03857655,223.70415,46.255841)" />
    <g
       id="g1227"
       transform="matrix(0.03857655,0,0,0.03857655,223.70415,46.255841)" />
    <g
       id="g1229"
       transform="matrix(0.03857655,0,0,0.03857655,223.70415,46.255841)" />
    <g
       id="g2024"
       transform="matrix(0.30726645,0,0,0.30726645,136.60543,76.07402)"
       style="fill:#ffffff;fill-opacity:1" />
    <g
       id="g1978"
       transform="matrix(0.26942553,0,0,0.26942553,116.39264,92.544152)"
       style="display:inline;fill:#fffff8;fill-opacity:1">
      <g
         id="g1956"
         transform="matrix(0.04589204,0,0,0.04589204,166.32427,75.085399)"
         style="fill:#fffff8;fill-opacity:1">
        <g
           id="g1898"
           style="fill:#fffff8;fill-opacity:1">
          <g
             id="g1896"
             style="fill:#fffff8;fill-opacity:1">
            <path
               d="m 305.949,424.6 c 0,-1.9 0,-1.9 0,-3.799 V 133.9 c 0,-11.5 -7.6,-19.1 -19.099,-19.1 -11.5,0 -19.1,9.6 -19.1,19.1 v 286.901 c 0,1.898 0,1.898 0,3.799 -23,7.701 -38.2,28.701 -38.2,53.5 0,32.5 24.9,57.4 57.4,57.4 32.499,0 57.399,-24.9 57.399,-57.4 -0.099,-24.799 -15.4,-45.799 -38.4,-53.5 z"
               id="path1892"
               style="fill:#fffff8;fill-opacity:1" />
            <path
               d="M 344.25,401.699 V 57.4 c 0,-32.5 -24.9,-57.4 -57.4,-57.4 -32.5,0 -57.4,26.8 -57.4,57.4 v 344.2 c -23,17.201 -38.2,45.9 -38.2,76.5 0,53.5 42.1,95.6 95.6,95.6 53.5,0 95.599,-42.1 95.599,-95.6 0,-30.6 -15.299,-59.2 -38.199,-76.401 z m -57.4,153 c -42.1,0 -76.5,-34.398 -76.5,-76.5 0,-28.699 15.3,-53.5 38.2,-66.898 V 57.4 c 0,-21 17.2,-38.2 38.2,-38.2 21,0 38.199,17.2 38.199,38.2 v 353.799 c 23,13.4 38.201,38.201 38.201,66.9 0.2,42.1 -34.201,76.6 -76.3,76.6 z"
               id="path1894"
               style="fill:#fffff8;fill-opacity:1" />
          </g>
        </g>
        <g
           id="g1900"
           style="fill:#fffff8;fill-opacity:1" />
        <g
           id="g1902"
           style="fill:#fffff8;fill-opacity:1" />
        <g
           id="g1904"
           style="fill:#fffff8;fill-opacity:1" />
        <g
           id="g1906"
           style="fill:#fffff8;fill-opacity:1" />
        <g
           id="g1908"
           style="fill:#fffff8;fill-opacity:1" />
        <g
           id="g1910"
           style="fill:#fffff8;fill-opacity:1" />
        <g
           id="g1912"
           style="fill:#fffff8;fill-opacity:1" />
        <g
           id="g1914"
           style="fill:#fffff8;fill-opacity:1" />
        <g
           id="g1916"
           style="fill:#fffff8;fill-opacity:1" />
        <g
           id="g1918"
           style="fill:#fffff8;fill-opacity:1" />
        <g
           id="g1920"
           style="fill:#fffff8;fill-opacity:1" />
        <g
           id="g1922"
           style="fill:#fffff8;fill-opacity:1" />
        <g
           id="g1924"
           style="fill:#fffff8;fill-opacity:1" />
        <g
           id="g1926"
           style="fill:#fffff8;fill-opacity:1" />
        <g
           id="g1928"
           style="fill:#fffff8;fill-opacity:1" />
      </g>
    </g>
  </g>
  <style
     type="text/css"
     id="style1130">
	.st0{fill:#16ADE1;}
	.st1{fill:#1B3954;}
</style>
</svg>
